<?xml version="1.0" standalone="no"?>
<!DOCTYPE svg PUBLIC "-//W3C//DTD SVG 20010904//EN"
 "http://www.w3.org/TR/2001/REC-SVG-20010904/DTD/svg10.dtd">
<svg version="1.0" xmlns="http://www.w3.org/2000/svg"
 width="700.000000pt" height="700.000000pt" viewBox="0 0 700.000000 700.000000"
 preserveAspectRatio="xMidYMid meet">
<metadata>
Created by potrace 1.14, written by Peter Selinger 2001-2017
</metadata>
<g transform="translate(0.000000,700.000000) scale(0.100000,-0.100000)"
fill="#000000" stroke="none">
<path d="M3395 6944 c-192 -33 -353 -149 -450 -323 -20 -36 -50 -77 -67 -90
-60 -48 -79 -50 -464 -51 l-361 0 -1 -495 0 -495 1447 0 1446 0 0 493 0 492
-375 5 c-336 4 -378 7 -408 23 -42 23 -86 69 -106 112 -9 18 -36 59 -60 92
-141 187 -370 278 -601 237z"/>
<path d="M740 5706 c-1 -70 -1 -5568 0 -5637 l0 -46 2560 0 c1561 0 2581 3
2613 9 169 31 314 169 359 343 10 40 12 585 13 2720 l0 2670 -452 2 -453 1 -1
-256 c0 -141 -2 -267 -4 -278 -13 -66 -57 -124 -119 -156 l-41 -22 -1715 0
-1715 0 -41 21 c-53 28 -100 82 -113 130 -6 22 -11 148 -11 300 l0 261 -440 0
-440 0 0 -62z"/>
</g>
</svg>
