<svg xmlns="http://www.w3.org/2000/svg" width="1000" height="600" viewBox="0 0 1000 600" version="1.1"><path d="M 651.500 83.125 C 650.400 83.740, 647.475 85.408, 645 86.832 C 642.525 88.257, 639.902 89.517, 639.172 89.634 C 633.725 90.503, 630.849 96.541, 630.441 107.959 C 630.273 112.657, 629.664 119.425, 629.088 123 C 627.714 131.523, 627.733 141.284, 629.145 152.294 C 630.181 160.374, 630.610 161.543, 633.645 164.579 C 635.490 166.424, 637 168.418, 637 169.010 C 637 169.601, 639.100 172.330, 641.666 175.074 C 645.634 179.316, 646.345 180.694, 646.416 184.281 L 646.500 188.500 638.500 192.549 C 634.100 194.777, 628.250 197.433, 625.500 198.453 C 611.168 203.768, 597.649 210.678, 593.267 214.928 C 585.273 222.681, 580.103 239.490, 580.035 257.947 C 579.994 268.955, 581.848 289.773, 583.078 292.116 C 583.545 293.004, 584.416 297.954, 585.014 303.116 C 586.871 319.135, 592.035 350.149, 594.099 357.685 C 595.182 361.636, 597.198 366.891, 598.579 369.362 C 601.248 374.139, 610.458 383.261, 619.510 390.095 C 622.530 392.375, 625 394.600, 625 395.041 C 625 395.481, 623.538 396.149, 621.750 396.526 C 619.962 396.903, 613.775 398.694, 608 400.506 C 602.225 402.319, 594.361 404.785, 590.524 405.987 C 581.876 408.696, 571.571 413.462, 567.271 416.742 C 565.483 418.106, 562.553 421.760, 560.760 424.861 C 557.734 430.096, 557.501 431.145, 557.517 439.500 C 557.531 446.818, 558.043 449.860, 560.255 455.777 C 563.754 465.134, 565.273 468, 568.155 470.684 C 570.950 473.288, 582.320 478.975, 590 481.612 C 595.450 483.483, 594.065 483.506, 438.500 484.105 C 352.150 484.438, 234.363 484.775, 176.750 484.855 C 80.340 484.988, 72 485.131, 72 486.642 C 72 488.161, 92.516 488.255, 347.250 487.892 L 622.500 487.500 651 491.816 L 679.500 496.132 710.500 495.627 C 732.242 495.273, 743.889 494.667, 749.500 493.596 C 753.900 492.757, 758.737 492.054, 760.250 492.035 C 763.494 491.994, 763.639 493.032, 761.500 501 C 758.517 512.115, 760.361 520.040, 766.706 523.369 C 770.887 525.563, 776.472 531.856, 779.341 537.607 C 783.153 545.247, 786.488 548.654, 793.378 551.942 C 798.938 554.596, 800.718 554.930, 810.051 555.078 C 826.635 555.341, 832.402 553.574, 835.385 547.318 C 838.905 539.938, 837.017 534.427, 827.649 524.740 C 814.145 510.775, 803.278 495.389, 805.412 493.255 C 805.730 492.937, 809.776 493.265, 814.402 493.985 C 821.281 495.055, 825.094 495.061, 835.318 494.019 C 849.783 492.544, 861.386 493.686, 869.030 497.337 C 873.492 499.468, 874.204 499.495, 916.780 499.183 C 953.482 498.913, 960 498.649, 960 497.433 C 960 496.215, 954.451 496, 923 496 L 886 496 886 490.616 C 886 486.294, 885.175 483.583, 881.820 476.881 C 876.659 466.569, 870.608 459.960, 862.720 456.018 C 855.933 452.627, 853.383 452.428, 838.500 454.136 C 830.867 455.012, 826.843 455.002, 821.500 454.094 L 814.500 452.904 814.500 442.202 C 814.500 433.898, 814.108 430.783, 812.751 428.302 C 811.582 426.164, 809.493 414.398, 806.448 392.802 C 800.484 350.498, 793.680 310.530, 791.458 304.750 C 790.853 303.176, 791.574 302.998, 798.643 302.983 C 812.325 302.953, 825.048 298.508, 829.117 292.336 C 831.506 288.712, 831.476 286.177, 828.932 276.996 C 825.958 266.265, 820.945 257.432, 811.940 247.053 C 803.542 237.375, 792.353 221.192, 785.784 209.224 C 777.331 193.823, 770.875 190.527, 738.301 184.987 C 725.691 182.843, 712.733 180.502, 709.507 179.787 C 702.872 178.315, 702.835 178.253, 701.078 165.586 C 700.302 159.991, 700.405 158.117, 701.622 155.765 C 703.735 151.678, 704.517 139.795, 703.746 123.483 C 703.277 113.564, 702.429 111.243, 697.308 105.882 C 695.407 103.892, 693.973 101.642, 694.122 100.882 C 694.941 96.690, 689.652 92.097, 682.182 90.514 C 680.358 90.128, 678.638 89.220, 678.361 88.497 C 677.583 86.470, 672.968 84.943, 664.877 84.034 C 660.820 83.578, 656.600 82.936, 655.500 82.606 C 654.400 82.276, 652.600 82.510, 651.500 83.125 M 648 87.964 C 644.975 89.558, 641.123 91.538, 639.441 92.365 C 636.288 93.913, 633.392 98.506, 634.958 99.474 C 635.443 99.774, 636.889 98.709, 638.170 97.107 C 641.286 93.212, 647.704 91.277, 657.820 91.181 C 668.981 91.076, 669.240 91.190, 681.250 101.498 C 682.280 102.382, 683 104.401, 683 106.407 C 683 108.281, 684.350 112.822, 686 116.500 C 688.392 121.830, 689 124.577, 689 130.044 C 689 135.532, 688.651 137.096, 687.251 137.879 C 686.290 138.417, 684.336 141.027, 682.911 143.679 C 681.485 146.331, 679.142 149.166, 677.704 149.980 C 675.235 151.378, 674.916 151.295, 671.953 148.480 C 670.228 146.841, 667.932 143.778, 666.850 141.674 C 663.705 135.560, 655.201 133.218, 647.630 136.381 C 643.729 138.011, 638 147.269, 638 151.944 C 638 153.890, 637.068 155.783, 635.306 157.417 C 632.922 159.627, 632.812 159.991, 634.349 160.580 C 635.304 160.947, 637 163.040, 638.119 165.233 C 639.237 167.425, 641.727 170.794, 643.653 172.719 C 646.745 175.812, 647.522 176.127, 650.326 175.422 C 652.072 174.984, 655.525 174.579, 658 174.522 C 660.475 174.466, 663.477 174.081, 664.670 173.668 C 665.864 173.254, 667.852 172.721, 669.090 172.483 C 670.327 172.245, 672.500 170.946, 673.919 169.596 C 675.339 168.247, 677.657 166.857, 679.072 166.508 C 680.487 166.158, 682.363 164.656, 683.241 163.170 C 684.119 161.683, 686.224 159.016, 687.919 157.243 C 691.096 153.918, 691.291 152.964, 691.446 140 C 691.522 133.667, 693.327 133.479, 694.381 139.693 C 695.350 145.404, 697.570 147.309, 699.761 144.312 C 700.641 143.108, 700.980 140.039, 700.788 135.018 C 700.545 128.688, 700.216 127.467, 698.676 127.173 C 697.672 126.982, 695.939 127.650, 694.824 128.660 C 692.836 130.459, 692.803 130.446, 693.148 127.997 C 693.407 126.159, 694.423 125.203, 697 124.375 C 702.841 122.496, 701.988 115.574, 694.907 107.393 C 692.758 104.910, 691 101.850, 691 100.594 C 691 97.518, 688.167 95.156, 682.396 93.419 C 679.761 92.625, 676.666 91.095, 675.520 90.019 C 674.070 88.657, 671.011 87.765, 665.468 87.088 C 661.086 86.553, 656.600 85.879, 655.500 85.591 C 654.350 85.289, 651.163 86.297, 648 87.964 M 640.574 99.250 C 637.233 102.688, 634.451 106.175, 634.391 107 C 634.332 107.825, 633.943 110.479, 633.529 112.898 L 632.774 117.295 635.754 116.699 C 637.967 116.257, 639.315 116.644, 640.991 118.206 C 642.968 120.048, 643.178 120.984, 642.686 125.757 L 642.123 131.204 645.812 130.736 C 650.318 130.164, 663.525 133.260, 665.954 135.459 C 666.927 136.339, 668.505 138.794, 669.462 140.915 C 670.424 143.050, 672.374 145.305, 673.831 145.969 C 676.221 147.058, 676.691 146.893, 678.981 144.166 C 684.203 137.945, 686 134.021, 686 128.835 C 686 126.070, 685.387 122.614, 684.639 121.154 C 682.270 116.536, 680.729 111.638, 680.254 107.222 C 679.882 103.757, 679.250 102.664, 676.929 101.463 C 675.353 100.648, 672.920 98.748, 671.522 97.241 C 669.164 94.699, 668.407 94.500, 661.075 94.500 C 656.727 94.500, 652.832 94.162, 652.419 93.750 C 650.168 91.505, 646.401 93.253, 640.574 99.250 M 658.060 108.752 C 653.240 111.201, 652.690 113.445, 657.391 111.481 C 661.588 109.727, 665.178 109.578, 666.694 111.094 C 667.295 111.695, 668.623 112.008, 669.644 111.787 C 671.160 111.461, 670.859 110.986, 668 109.197 C 663.768 106.549, 662.504 106.493, 658.060 108.752 M 659.701 114.632 C 659.316 115.018, 659 116.190, 659 117.236 C 659 118.638, 659.593 119.055, 661.250 118.820 C 662.721 118.611, 663.500 117.812, 663.500 116.514 C 663.500 114.530, 661.028 113.306, 659.701 114.632 M 633.924 121.581 C 631.599 124.057, 631.500 124.729, 631.500 138.046 C 631.500 149.934, 631.751 152.180, 633.250 153.679 C 634.917 155.345, 635 155.276, 635 152.215 C 635 150.448, 636.598 145.866, 638.552 142.033 C 641.670 135.915, 641.950 134.784, 640.844 132.781 C 640.115 131.463, 639.710 128.072, 639.884 124.750 C 640.150 119.644, 639.969 119, 638.266 119 C 637.212 119, 635.258 120.162, 633.924 121.581 M 635.336 124.567 C 634.614 126.448, 636.384 128.499, 637.913 127.554 C 639.561 126.535, 639.216 123, 637.469 123 C 636.626 123, 635.667 123.705, 635.336 124.567 M 696.340 133.137 C 696.688 134.436, 696.979 136.287, 696.986 137.250 C 696.994 138.213, 697.675 139, 698.500 139 C 700.949 139, 700.428 133.299, 697.854 131.922 C 695.890 130.871, 695.761 130.974, 696.340 133.137 M 652.994 138.934 C 644.337 141.567, 641.275 146.014, 646.698 148.075 C 648.815 148.880, 650.114 148.715, 652.727 147.308 C 663.171 141.683, 663.359 135.781, 652.994 138.934 M 651.352 141.993 C 648.761 143.039, 647.621 144.648, 648.909 145.444 C 650.292 146.299, 655 143.900, 655 142.339 C 655 140.821, 654.400 140.764, 651.352 141.993 M 694 150.230 C 694 152.342, 693.031 155.037, 691.529 157.102 C 690.170 158.971, 687.948 162.134, 686.592 164.130 C 685.206 166.171, 682.688 168.262, 680.841 168.905 C 679.035 169.535, 676.337 171.219, 674.847 172.647 C 671.880 175.489, 665.736 177.277, 659.502 177.114 C 654.650 176.986, 648.991 178.722, 649.024 180.328 C 649.037 180.972, 649.431 183.151, 649.900 185.168 C 650.554 187.982, 650.315 189.814, 648.876 193.028 C 645.559 200.438, 646.686 205.972, 652.810 212.335 C 658.693 218.449, 663.272 220.343, 672 220.275 C 682.938 220.190, 689.894 217.283, 697.579 209.588 C 704.191 202.965, 707 196.958, 707 189.437 C 707 186.162, 706.495 184.899, 704.721 183.737 C 701.123 181.379, 697.027 165.519, 697.008 153.872 C 697.003 150.987, 696.435 148.776, 695.500 148 C 694.216 146.934, 694 147.255, 694 150.230 M 709.494 189.253 C 709.483 201.327, 701.708 212.811, 689.620 218.611 C 679.252 223.586, 673.008 224.606, 665.558 222.545 C 652.578 218.952, 645.304 210.944, 644.080 198.899 L 643.500 193.195 624.398 201.425 C 613.892 205.951, 603.767 210.604, 601.898 211.764 C 593.710 216.849, 587.257 226.413, 584.803 237.104 C 583.372 243.335, 583.111 268.440, 584.342 281.278 L 585.184 290.056 588.842 289.404 C 601.521 287.142, 621.321 283.012, 621.805 282.528 C 622.121 282.213, 621.619 277.988, 620.690 273.141 C 618.704 262.781, 618.554 260.154, 620.035 261.635 C 621.296 262.896, 623.821 273.304, 628.008 294.500 C 630.189 305.539, 631.387 315.151, 631.874 325.500 C 632.657 342.166, 632.925 342.991, 640.013 350.558 C 642.618 353.340, 646.902 359.320, 649.532 363.846 C 652.162 368.373, 654.686 372.306, 655.140 372.587 C 655.595 372.868, 658.711 371.234, 662.065 368.956 C 672.626 361.784, 686.931 356.322, 705 352.563 C 711.875 351.132, 718.239 349.970, 719.143 349.981 C 722.169 350.016, 722.088 346.762, 718.870 339.094 C 715.131 330.184, 714.026 319.330, 715.995 310.847 C 717.615 303.865, 724.014 290.115, 728.659 283.634 C 738.065 270.512, 745.237 264.276, 755.250 260.513 C 760.505 258.539, 760.417 258.647, 758.970 255.943 C 755.235 248.965, 776.973 233.087, 790.824 232.677 L 796.808 232.500 794.367 228.500 C 793.024 226.300, 789.805 220.707, 787.213 216.072 C 784.621 211.436, 780.142 205.081, 777.260 201.949 C 769.949 194.004, 765.426 192.189, 745 189.010 C 740.875 188.367, 731.464 186.753, 724.087 185.421 C 716.710 184.089, 710.410 183.001, 710.087 183.003 C 709.764 183.004, 709.497 185.817, 709.494 189.253 M 779.365 238.079 C 773.629 240.285, 760.980 251.158, 761.032 253.839 C 761.102 257.485, 763.254 258.500, 770.917 258.500 C 775.961 258.500, 778.467 258.900, 778.750 259.750 C 779.054 260.663, 777.442 261, 772.767 261 C 764.632 261, 755.576 262.665, 750.991 265.005 C 743.565 268.793, 727.556 287.966, 722.753 298.825 C 716.358 313.283, 716.438 333.151, 722.923 341.151 C 725.736 344.620, 726.490 342.786, 725.179 335.666 C 723.341 325.694, 726.508 306, 729.949 306 C 730.610 306, 731 309.540, 731 315.545 C 731 324.347, 731.191 325.282, 733.455 327.545 C 735.763 329.854, 739 330.868, 739 329.283 C 739 328.889, 738.271 326.659, 737.381 324.327 C 735.543 319.514, 736.185 313, 738.498 313 C 739.581 313, 739.791 314.097, 739.407 317.750 C 738.739 324.119, 740.508 327.400, 744.838 327.818 C 746.649 327.993, 748.763 327.612, 749.536 326.970 C 750.730 325.979, 750.636 325.208, 748.913 321.829 C 746.756 317.601, 746.669 311.927, 748.750 311.244 C 749.622 310.958, 750 312.153, 750 315.194 C 750 320.807, 752.196 324, 756.057 324 C 758.974 324, 759 323.949, 758.992 318.250 C 758.986 314.210, 759.867 310.270, 761.953 305 C 763.587 300.875, 765.728 294.842, 766.712 291.593 C 767.695 288.343, 769.257 285.215, 770.183 284.640 C 772.680 283.089, 781.366 287.500, 785.564 292.452 C 787.452 294.678, 789.672 297.288, 790.498 298.250 C 794.150 302.505, 819.291 298.970, 825.125 293.381 C 828.716 289.940, 828.811 286.511, 825.621 275.336 C 822.784 265.396, 819.982 260.473, 812.338 252 C 809.113 248.425, 804.763 243.363, 802.670 240.750 L 798.866 236 791.683 236.052 C 787.041 236.086, 782.683 236.803, 779.365 238.079 M 603 289.328 L 587.500 292.546 587.743 298.023 C 588.145 307.064, 590.213 321.818, 595.167 351 C 597.246 363.247, 599.567 367.715, 608.408 376.493 C 612.858 380.912, 620.775 387.701, 626 391.580 C 631.225 395.458, 639.595 401.672, 644.599 405.388 C 654.745 412.921, 657.050 416.309, 657.938 424.991 L 658.500 430.483 663 431.161 C 667.726 431.874, 680.486 435.789, 695.309 441.075 C 700.153 442.802, 704.304 444.030, 704.532 443.802 C 705.521 442.812, 702.568 435.853, 697.728 427.769 C 691.863 417.974, 684.092 408.604, 666.497 390.114 C 657.613 380.777, 653.259 375.280, 649.741 368.955 C 647.127 364.255, 642.380 357.472, 639.193 353.881 C 630.697 344.310, 629.367 340.423, 628.626 323 C 628.254 314.249, 627.116 304.139, 625.755 297.500 C 623.634 287.156, 623.351 286.488, 621 286.305 C 619.625 286.197, 611.525 287.558, 603 289.328 M 770.161 289.547 C 769.522 290.948, 768.992 292.635, 768.982 293.297 C 768.972 293.959, 767.397 298.304, 765.482 302.953 C 762.934 309.140, 762 312.901, 762 316.981 C 762 322.982, 760.075 326.997, 757.193 327.004 C 756.262 327.006, 753.305 328.122, 750.621 329.484 C 747.938 330.845, 745.342 331.711, 744.852 331.408 C 744.362 331.106, 742.422 331.366, 740.542 331.986 C 736.354 333.368, 731.907 331.460, 729.474 327.237 C 727.973 324.633, 727.920 324.946, 728.379 333.685 C 728.778 341.269, 728.584 343.099, 727.271 344.185 C 725.378 345.750, 713 370.782, 713 373.045 C 713 373.910, 712.293 375.491, 711.430 376.559 C 708.472 380.214, 710.565 371.599, 714.918 362.197 C 717.133 357.414, 718.508 353.350, 717.974 353.167 C 717.439 352.984, 714.639 353.355, 711.751 353.991 C 708.863 354.628, 703.350 355.799, 699.500 356.594 C 683.955 359.801, 659.798 371.105, 658.192 375.923 C 657.919 376.742, 661.626 381.067, 667.182 386.409 C 672.383 391.409, 677.688 397.075, 678.972 399 C 680.256 400.925, 683.435 404.750, 686.037 407.500 C 692.377 414.199, 697.947 422.647, 704.262 435.139 L 709.500 445.500 715 447.338 C 720.839 449.288, 728.181 449.690, 742 448.816 C 753.774 448.070, 756 447.357, 756 444.326 C 756 442.974, 756.481 440.969, 757.069 439.871 C 757.835 438.440, 757.811 436.399, 756.988 432.686 C 756.355 429.834, 754.776 422.469, 753.480 416.320 C 752.184 410.170, 750.433 403.805, 749.590 402.175 C 748.747 400.544, 747.615 397.475, 747.075 395.355 C 742.888 378.924, 737.793 360.520, 736.068 355.593 C 733.531 348.346, 733.321 345.874, 735.426 348.036 C 737.321 349.981, 740.320 359.159, 745.040 377.453 C 747.175 385.729, 750.474 397.225, 752.371 403 C 754.269 408.775, 756.599 417.550, 757.550 422.500 C 758.501 427.450, 759.596 431.857, 759.982 432.292 C 760.369 432.728, 762.731 430.689, 765.233 427.761 C 767.735 424.833, 772.193 421.102, 775.141 419.470 C 782.337 415.485, 791.591 415.405, 800.500 419.251 C 806.204 421.714, 806.516 421.748, 806.817 419.944 C 807.433 416.245, 800.577 369.650, 792.009 319.315 C 790.665 311.419, 787.898 300.794, 786.459 298 C 784.957 295.086, 779.462 289.733, 776.316 288.120 C 772.971 286.405, 771.429 286.762, 770.161 289.547 M 622 398.992 C 620.625 399.451, 613.875 401.484, 607 403.509 C 590.127 408.481, 578.245 412.685, 574.462 415.024 C 568.794 418.526, 561.198 427.425, 560.444 431.446 C 558.391 442.392, 562.652 460.051, 569.120 467.399 C 575.439 474.578, 591.197 480.671, 610.642 483.453 C 616.614 484.307, 632.525 486.610, 646 488.570 C 672.401 492.410, 702.222 493.947, 718.500 492.306 L 726.500 491.500 726.200 479.219 C 725.988 470.534, 726.354 465.168, 727.450 460.889 C 728.303 457.561, 729 454.475, 729 454.031 C 729 453.586, 727.313 452.927, 725.250 452.567 C 719.438 451.550, 708.564 448.270, 696.500 443.894 C 673.729 435.634, 667.388 434.096, 651.950 433.091 C 637.563 432.155, 625.397 429.520, 626.135 427.500 C 626.550 426.363, 626.167 426.326, 635.500 428.406 C 639.350 429.263, 645.035 429.973, 648.133 429.983 C 654.330 430.002, 654.957 429.292, 654.986 422.228 C 655.004 417.993, 649.556 411.981, 638.401 403.929 C 630.038 397.891, 627.546 397.141, 622 398.992 M 782.500 419.906 C 777.191 421.250, 773.405 423.776, 768.252 429.414 C 762.790 435.391, 759.003 442.203, 758.995 446.066 C 758.989 448.972, 762.096 458, 763.102 458 C 763.491 458, 765.165 455.637, 766.822 452.750 C 777.848 433.538, 795.992 425.993, 804.288 437.169 C 807.138 441.008, 808.650 458.084, 806.654 463.879 C 804.654 469.683, 806.316 469.018, 808.916 462.973 C 810.725 458.769, 811.113 455.757, 811.289 444.559 C 811.494 431.524, 811.434 431.101, 809 428.485 C 803.325 422.389, 789.883 418.037, 782.500 419.906 M 788.734 435.718 C 785.528 436.202, 775.188 445.398, 771.073 451.424 C 768.365 455.390, 768.274 455.972, 767.676 473 C 767.227 485.815, 766.523 492.508, 765.048 498 C 763.941 502.125, 763.027 508.003, 763.017 511.063 C 762.998 517.140, 764.233 518.897, 772.252 524.204 C 774.769 525.870, 777.033 528.749, 779.136 532.956 C 783.042 540.772, 791.559 549.488, 796.837 551.069 C 799.317 551.812, 805.887 552.093, 814.970 551.843 C 829.100 551.455, 829.234 551.430, 831.607 548.670 C 833.447 546.532, 834 544.723, 834 540.847 C 834 536.011, 833.739 535.534, 827.606 529.153 C 810.944 511.815, 802.007 497.847, 801.992 489.116 C 801.987 486.577, 801.326 479.550, 800.523 473.500 C 799.720 467.450, 798.757 456.650, 798.383 449.500 C 797.986 441.894, 797.247 436.195, 796.602 435.765 C 795.465 435.007, 793.513 434.995, 788.734 435.718 M 801.491 447.401 C 801.771 451.746, 802 457.060, 802 459.210 C 802 461.561, 802.398 462.872, 803 462.500 C 804.565 461.533, 804.134 445.960, 802.446 442.500 C 801.064 439.667, 801.011 439.939, 801.491 447.401 M 732.093 457 C 729.635 462.214, 729.514 463.227, 729.768 476.483 C 730.100 493.752, 730.011 493.618, 740.077 492.056 C 744.101 491.432, 748.512 490.376, 749.881 489.710 C 752.338 488.515, 752.367 488.354, 752.157 477 C 751.962 466.506, 752.167 465.028, 754.493 460.105 C 758.498 451.629, 757.889 451.046, 745.289 451.293 L 734.686 451.500 732.093 457 M 813.990 457.156 C 813.973 459.581, 808.929 469.442, 806.293 472.205 C 803.798 474.819, 803.742 475.153, 804.606 482.205 L 805.500 489.500 813.255 490.924 C 819.825 492.130, 823.125 492.149, 834.869 491.048 C 850.663 489.566, 858.016 490.348, 867.432 494.513 C 874.301 497.550, 879.040 497.719, 881.489 495.012 C 882.966 493.380, 883.178 491.977, 882.675 487.166 C 881.833 479.111, 878.799 473.809, 869.893 464.833 C 861.040 455.909, 858.705 455.161, 844.146 456.591 C 833.003 457.685, 825.788 457.704, 819.250 456.655 C 815.105 455.990, 813.998 456.095, 813.990 457.156 M 756.847 462.250 C 755.410 464.890, 754.464 480.332, 755.425 485.453 C 756.049 488.779, 756.328 489, 759.903 489 L 763.715 489 764.358 482.853 C 765.516 471.772, 765.177 464, 763.535 464 C 762.730 464, 761.589 463.100, 761 462 C 759.606 459.395, 758.358 459.471, 756.847 462.250" stroke="none" fill="#4d76b8" fill-rule="evenodd"/><path d="M 709.494 189.253 C 709.483 201.327, 701.708 212.811, 689.620 218.611 C 679.252 223.586, 673.008 224.606, 665.558 222.545 C 652.578 218.952, 645.304 210.944, 644.080 198.899 L 643.500 193.195 624.398 201.425 C 613.892 205.951, 603.767 210.604, 601.898 211.764 C 593.710 216.849, 587.257 226.413, 584.803 237.104 C 583.372 243.335, 583.111 268.440, 584.342 281.278 L 585.184 290.056 588.842 289.404 C 601.521 287.142, 621.321 283.012, 621.805 282.528 C 622.121 282.213, 621.619 277.988, 620.690 273.141 C 618.704 262.781, 618.554 260.154, 620.035 261.635 C 621.296 262.896, 623.821 273.304, 628.008 294.500 C 630.189 305.539, 631.387 315.151, 631.874 325.500 C 632.657 342.166, 632.925 342.991, 640.013 350.558 C 642.618 353.340, 646.902 359.320, 649.532 363.846 C 652.162 368.373, 654.686 372.306, 655.140 372.587 C 655.595 372.868, 658.711 371.234, 662.065 368.956 C 672.626 361.784, 686.931 356.322, 705 352.563 C 711.875 351.132, 718.239 349.970, 719.143 349.981 C 722.169 350.016, 722.088 346.762, 718.870 339.094 C 715.131 330.184, 714.026 319.330, 715.995 310.847 C 717.615 303.865, 724.014 290.115, 728.659 283.634 C 738.065 270.512, 745.237 264.276, 755.250 260.513 C 760.505 258.539, 760.417 258.647, 758.970 255.943 C 755.235 248.965, 776.973 233.087, 790.824 232.677 L 796.808 232.500 794.367 228.500 C 793.024 226.300, 789.805 220.707, 787.213 216.072 C 784.621 211.436, 780.142 205.081, 777.260 201.949 C 769.949 194.004, 765.426 192.189, 745 189.010 C 740.875 188.367, 731.464 186.753, 724.087 185.421 C 716.710 184.089, 710.410 183.001, 710.087 183.003 C 709.764 183.004, 709.497 185.817, 709.494 189.253 M 782.500 419.906 C 777.191 421.250, 773.405 423.776, 768.252 429.414 C 762.790 435.391, 759.003 442.203, 758.995 446.066 C 758.989 448.972, 762.096 458, 763.102 458 C 763.491 458, 765.165 455.637, 766.822 452.750 C 777.848 433.538, 795.992 425.993, 804.288 437.169 C 807.138 441.008, 808.650 458.084, 806.654 463.879 C 804.654 469.683, 806.316 469.018, 808.916 462.973 C 810.725 458.769, 811.113 455.757, 811.289 444.559 C 811.494 431.524, 811.434 431.101, 809 428.485 C 803.325 422.389, 789.883 418.037, 782.500 419.906 M 801.491 447.401 C 801.771 451.746, 802 457.060, 802 459.210 C 802 461.561, 802.398 462.872, 803 462.500 C 804.565 461.533, 804.134 445.960, 802.446 442.500 C 801.064 439.667, 801.011 439.939, 801.491 447.401 M 732.093 457 C 729.635 462.214, 729.514 463.227, 729.768 476.483 C 730.100 493.752, 730.011 493.618, 740.077 492.056 C 744.101 491.432, 748.512 490.376, 749.881 489.710 C 752.338 488.515, 752.367 488.354, 752.157 477 C 751.962 466.506, 752.167 465.028, 754.493 460.105 C 758.498 451.629, 757.889 451.046, 745.289 451.293 L 734.686 451.500 732.093 457" stroke="none" fill="#6299e8" fill-rule="evenodd"/><path d="M 770.161 289.547 C 769.522 290.948, 768.992 292.635, 768.982 293.297 C 768.972 293.959, 767.397 298.304, 765.482 302.953 C 762.934 309.140, 762 312.901, 762 316.981 C 762 322.982, 760.075 326.997, 757.193 327.004 C 756.262 327.006, 753.305 328.122, 750.621 329.484 C 747.938 330.845, 745.342 331.711, 744.852 331.408 C 744.362 331.106, 742.422 331.366, 740.542 331.986 C 736.354 333.368, 731.907 331.460, 729.474 327.237 C 727.973 324.633, 727.920 324.946, 728.379 333.685 C 728.778 341.269, 728.584 343.099, 727.271 344.185 C 725.378 345.750, 713 370.782, 713 373.045 C 713 373.910, 712.293 375.491, 711.430 376.559 C 708.472 380.214, 710.565 371.599, 714.918 362.197 C 717.133 357.414, 718.508 353.350, 717.974 353.167 C 717.439 352.984, 714.639 353.355, 711.751 353.991 C 708.863 354.628, 703.350 355.799, 699.500 356.594 C 683.955 359.801, 659.798 371.105, 658.192 375.923 C 657.919 376.742, 661.626 381.067, 667.182 386.409 C 672.383 391.409, 677.688 397.075, 678.972 399 C 680.256 400.925, 683.435 404.750, 686.037 407.500 C 692.377 414.199, 697.947 422.647, 704.262 435.139 L 709.500 445.500 715 447.338 C 720.839 449.288, 728.181 449.690, 742 448.816 C 753.774 448.070, 756 447.357, 756 444.326 C 756 442.974, 756.481 440.969, 757.069 439.871 C 757.835 438.440, 757.811 436.399, 756.988 432.686 C 756.355 429.834, 754.776 422.469, 753.480 416.320 C 752.184 410.170, 750.433 403.805, 749.590 402.175 C 748.747 400.544, 747.615 397.475, 747.075 395.355 C 742.888 378.924, 737.793 360.520, 736.068 355.593 C 733.531 348.346, 733.321 345.874, 735.426 348.036 C 737.321 349.981, 740.320 359.159, 745.040 377.453 C 747.175 385.729, 750.474 397.225, 752.371 403 C 754.269 408.775, 756.599 417.550, 757.550 422.500 C 758.501 427.450, 759.596 431.857, 759.982 432.292 C 760.369 432.728, 762.731 430.689, 765.233 427.761 C 767.735 424.833, 772.193 421.102, 775.141 419.470 C 782.337 415.485, 791.591 415.405, 800.500 419.251 C 806.204 421.714, 806.516 421.748, 806.817 419.944 C 807.433 416.245, 800.577 369.650, 792.009 319.315 C 790.665 311.419, 787.898 300.794, 786.459 298 C 784.957 295.086, 779.462 289.733, 776.316 288.120 C 772.971 286.405, 771.429 286.762, 770.161 289.547 M 622 398.992 C 620.625 399.451, 613.875 401.484, 607 403.509 C 590.127 408.481, 578.245 412.685, 574.462 415.024 C 568.794 418.526, 561.198 427.425, 560.444 431.446 C 558.391 442.392, 562.652 460.051, 569.120 467.399 C 575.439 474.578, 591.197 480.671, 610.642 483.453 C 616.614 484.307, 632.525 486.610, 646 488.570 C 672.401 492.410, 702.222 493.947, 718.500 492.306 L 726.500 491.500 726.200 479.219 C 725.988 470.534, 726.354 465.168, 727.450 460.889 C 728.303 457.561, 729 454.475, 729 454.031 C 729 453.586, 727.313 452.927, 725.250 452.567 C 719.438 451.550, 708.564 448.270, 696.500 443.894 C 673.729 435.634, 667.388 434.096, 651.950 433.091 C 637.563 432.155, 625.397 429.520, 626.135 427.500 C 626.550 426.363, 626.167 426.326, 635.500 428.406 C 639.350 429.263, 645.035 429.973, 648.133 429.983 C 654.330 430.002, 654.957 429.292, 654.986 422.228 C 655.004 417.993, 649.556 411.981, 638.401 403.929 C 630.038 397.891, 627.546 397.141, 622 398.992" stroke="none" fill="#a9c0ff" fill-rule="evenodd"/><path d="M 648 87.964 C 644.975 89.558, 641.123 91.538, 639.441 92.365 C 636.288 93.913, 633.392 98.506, 634.958 99.474 C 635.443 99.774, 636.889 98.709, 638.170 97.107 C 641.286 93.212, 647.704 91.277, 657.820 91.181 C 668.981 91.076, 669.240 91.190, 681.250 101.498 C 682.280 102.382, 683 104.401, 683 106.407 C 683 108.281, 684.350 112.822, 686 116.500 C 688.392 121.830, 689 124.577, 689 130.044 C 689 135.532, 688.651 137.096, 687.251 137.879 C 686.290 138.417, 684.336 141.027, 682.911 143.679 C 681.485 146.331, 679.142 149.166, 677.704 149.980 C 675.235 151.378, 674.916 151.295, 671.953 148.480 C 670.228 146.841, 667.932 143.778, 666.850 141.674 C 663.705 135.560, 655.201 133.218, 647.630 136.381 C 643.729 138.011, 638 147.269, 638 151.944 C 638 153.890, 637.068 155.783, 635.306 157.417 C 632.922 159.627, 632.812 159.991, 634.349 160.580 C 635.304 160.947, 637 163.040, 638.119 165.233 C 639.237 167.425, 641.727 170.794, 643.653 172.719 C 646.745 175.812, 647.522 176.127, 650.326 175.422 C 652.072 174.984, 655.525 174.579, 658 174.522 C 660.475 174.466, 663.477 174.081, 664.670 173.668 C 665.864 173.254, 667.852 172.721, 669.090 172.483 C 670.327 172.245, 672.500 170.946, 673.919 169.596 C 675.339 168.247, 677.657 166.857, 679.072 166.508 C 680.487 166.158, 682.363 164.656, 683.241 163.170 C 684.119 161.683, 686.224 159.016, 687.919 157.243 C 691.103 153.911, 691.753 150.614, 691.220 140.500 C 691.104 138.300, 691.443 135.600, 691.974 134.500 C 692.505 133.400, 693.065 130.925, 693.219 129 C 693.462 125.977, 693.977 125.347, 697 124.375 C 702.841 122.496, 701.988 115.574, 694.907 107.393 C 692.758 104.910, 691 101.850, 691 100.594 C 691 97.518, 688.167 95.156, 682.396 93.419 C 679.761 92.625, 676.666 91.095, 675.520 90.019 C 674.070 88.657, 671.011 87.765, 665.468 87.088 C 661.086 86.553, 656.600 85.879, 655.500 85.591 C 654.350 85.289, 651.163 86.297, 648 87.964 M 652.994 138.934 C 644.337 141.567, 641.275 146.014, 646.698 148.075 C 648.815 148.880, 650.114 148.715, 652.727 147.308 C 663.171 141.683, 663.359 135.781, 652.994 138.934" stroke="none" fill="#92b1ef" fill-rule="evenodd"/><path d="M 640.574 99.250 C 637.233 102.688, 634.451 106.175, 634.391 107 C 634.332 107.825, 633.943 110.479, 633.529 112.898 L 632.774 117.295 635.754 116.699 C 637.967 116.257, 639.315 116.644, 640.991 118.206 C 642.968 120.048, 643.178 120.984, 642.686 125.757 L 642.123 131.204 645.812 130.736 C 650.318 130.164, 663.525 133.260, 665.954 135.459 C 666.927 136.339, 668.505 138.794, 669.462 140.915 C 670.424 143.050, 672.374 145.305, 673.831 145.969 C 676.221 147.058, 676.691 146.893, 678.981 144.166 C 684.203 137.945, 686 134.021, 686 128.835 C 686 126.070, 685.387 122.614, 684.639 121.154 C 682.270 116.536, 680.729 111.638, 680.254 107.222 C 679.882 103.757, 679.250 102.664, 676.929 101.463 C 675.353 100.648, 672.920 98.748, 671.522 97.241 C 669.164 94.699, 668.407 94.500, 661.075 94.500 C 656.727 94.500, 652.832 94.162, 652.419 93.750 C 650.168 91.505, 646.401 93.253, 640.574 99.250 M 658.060 108.752 C 653.240 111.201, 652.690 113.445, 657.391 111.481 C 661.588 109.727, 665.178 109.578, 666.694 111.094 C 667.295 111.695, 668.623 112.008, 669.644 111.787 C 671.160 111.461, 670.859 110.986, 668 109.197 C 663.768 106.549, 662.504 106.493, 658.060 108.752 M 659.701 114.632 C 659.316 115.018, 659 116.190, 659 117.236 C 659 118.638, 659.593 119.055, 661.250 118.820 C 662.721 118.611, 663.500 117.812, 663.500 116.514 C 663.500 114.530, 661.028 113.306, 659.701 114.632 M 633.924 121.581 C 631.599 124.057, 631.500 124.729, 631.500 138.046 C 631.500 149.934, 631.751 152.180, 633.250 153.679 C 634.917 155.345, 635 155.276, 635 152.215 C 635 150.448, 636.598 145.866, 638.552 142.033 C 641.670 135.915, 641.950 134.784, 640.844 132.781 C 640.115 131.463, 639.710 128.072, 639.884 124.750 C 640.150 119.644, 639.969 119, 638.266 119 C 637.212 119, 635.258 120.162, 633.924 121.581 M 635.336 124.567 C 634.614 126.448, 636.384 128.499, 637.913 127.554 C 639.561 126.535, 639.216 123, 637.469 123 C 636.626 123, 635.667 123.705, 635.336 124.567 M 694.593 128.897 C 692.956 130.706, 692.908 131.501, 694.050 137.892 C 695.386 145.369, 697.363 147.591, 699.761 144.312 C 700.642 143.108, 700.980 140.037, 700.788 135.007 C 700.531 128.306, 700.279 127.468, 698.445 127.206 C 697.314 127.044, 695.581 127.805, 694.593 128.897 M 696.340 133.137 C 696.688 134.436, 696.979 136.287, 696.986 137.250 C 696.994 138.213, 697.675 139, 698.500 139 C 700.949 139, 700.428 133.299, 697.854 131.922 C 695.890 130.871, 695.761 130.974, 696.340 133.137 M 651.352 141.993 C 648.761 143.039, 647.621 144.648, 648.909 145.444 C 650.292 146.299, 655 143.900, 655 142.339 C 655 140.821, 654.400 140.764, 651.352 141.993 M 694 150.230 C 694 152.342, 693.031 155.037, 691.529 157.102 C 690.170 158.971, 687.948 162.134, 686.592 164.130 C 685.206 166.171, 682.688 168.262, 680.841 168.905 C 679.035 169.535, 676.337 171.219, 674.847 172.647 C 671.880 175.489, 665.736 177.277, 659.502 177.114 C 654.650 176.986, 648.991 178.722, 649.024 180.328 C 649.037 180.972, 649.431 183.151, 649.900 185.168 C 650.554 187.982, 650.315 189.814, 648.876 193.028 C 645.559 200.438, 646.686 205.972, 652.810 212.335 C 658.693 218.449, 663.272 220.343, 672 220.275 C 682.938 220.190, 689.894 217.283, 697.579 209.588 C 704.191 202.965, 707 196.958, 707 189.437 C 707 186.162, 706.495 184.899, 704.721 183.737 C 701.123 181.379, 697.027 165.519, 697.008 153.872 C 697.003 150.987, 696.435 148.776, 695.500 148 C 694.216 146.934, 694 147.255, 694 150.230 M 779.365 238.079 C 773.629 240.285, 760.980 251.158, 761.032 253.839 C 761.102 257.485, 763.254 258.500, 770.917 258.500 C 775.961 258.500, 778.467 258.900, 778.750 259.750 C 779.054 260.663, 777.442 261, 772.767 261 C 764.632 261, 755.576 262.665, 750.991 265.005 C 743.565 268.793, 727.556 287.966, 722.753 298.825 C 716.358 313.283, 716.438 333.151, 722.923 341.151 C 725.736 344.620, 726.490 342.786, 725.179 335.666 C 723.341 325.694, 726.508 306, 729.949 306 C 730.610 306, 731 309.540, 731 315.545 C 731 324.347, 731.191 325.282, 733.455 327.545 C 735.763 329.854, 739 330.868, 739 329.283 C 739 328.889, 738.271 326.659, 737.381 324.327 C 735.543 319.514, 736.185 313, 738.498 313 C 739.581 313, 739.791 314.097, 739.407 317.750 C 738.739 324.119, 740.508 327.400, 744.838 327.818 C 746.649 327.993, 748.763 327.612, 749.536 326.970 C 750.730 325.979, 750.636 325.208, 748.913 321.829 C 746.756 317.601, 746.669 311.927, 748.750 311.244 C 749.622 310.958, 750 312.153, 750 315.194 C 750 320.807, 752.196 324, 756.057 324 C 758.974 324, 759 323.949, 758.992 318.250 C 758.986 314.210, 759.867 310.270, 761.953 305 C 763.587 300.875, 765.728 294.842, 766.712 291.593 C 767.695 288.343, 769.257 285.215, 770.183 284.640 C 772.680 283.089, 781.366 287.500, 785.564 292.452 C 787.452 294.678, 789.672 297.288, 790.498 298.250 C 794.150 302.505, 819.291 298.970, 825.125 293.381 C 828.716 289.940, 828.811 286.511, 825.621 275.336 C 822.784 265.396, 819.982 260.473, 812.338 252 C 809.113 248.425, 804.763 243.363, 802.670 240.750 L 798.866 236 791.683 236.052 C 787.041 236.086, 782.683 236.803, 779.365 238.079 M 603 289.328 L 587.500 292.546 587.743 298.023 C 588.145 307.064, 590.213 321.818, 595.167 351 C 597.246 363.247, 599.567 367.715, 608.408 376.493 C 612.858 380.912, 620.775 387.701, 626 391.580 C 631.225 395.458, 639.595 401.672, 644.599 405.388 C 654.745 412.921, 657.050 416.309, 657.938 424.991 L 658.500 430.483 663 431.161 C 667.726 431.874, 680.486 435.789, 695.309 441.075 C 700.153 442.802, 704.304 444.030, 704.532 443.802 C 705.521 442.812, 702.568 435.853, 697.728 427.769 C 691.863 417.974, 684.092 408.604, 666.497 390.114 C 657.613 380.777, 653.259 375.280, 649.741 368.955 C 647.127 364.255, 642.380 357.472, 639.193 353.881 C 630.697 344.310, 629.367 340.423, 628.626 323 C 628.254 314.249, 627.116 304.139, 625.755 297.500 C 623.634 287.156, 623.351 286.488, 621 286.305 C 619.625 286.197, 611.525 287.558, 603 289.328 M 788.734 435.718 C 785.528 436.202, 775.188 445.398, 771.073 451.424 C 768.365 455.390, 768.274 455.972, 767.676 473 C 767.227 485.815, 766.523 492.508, 765.048 498 C 763.941 502.125, 763.027 508.003, 763.017 511.063 C 762.998 517.140, 764.233 518.897, 772.252 524.204 C 774.769 525.870, 777.033 528.749, 779.136 532.956 C 783.042 540.772, 791.559 549.488, 796.837 551.069 C 799.317 551.812, 805.887 552.093, 814.970 551.843 C 829.100 551.455, 829.234 551.430, 831.607 548.670 C 833.447 546.532, 834 544.723, 834 540.847 C 834 536.011, 833.739 535.534, 827.606 529.153 C 810.944 511.815, 802.007 497.847, 801.992 489.116 C 801.987 486.577, 801.326 479.550, 800.523 473.500 C 799.720 467.450, 798.757 456.650, 798.383 449.500 C 797.986 441.894, 797.247 436.195, 796.602 435.765 C 795.465 435.007, 793.513 434.995, 788.734 435.718 M 813.990 457.156 C 813.973 459.581, 808.929 469.442, 806.293 472.205 C 803.798 474.819, 803.742 475.153, 804.606 482.205 L 805.500 489.500 813.255 490.924 C 819.825 492.130, 823.125 492.149, 834.869 491.048 C 850.663 489.566, 858.016 490.348, 867.432 494.513 C 874.301 497.550, 879.040 497.719, 881.489 495.012 C 882.966 493.380, 883.178 491.977, 882.675 487.166 C 881.833 479.111, 878.799 473.809, 869.893 464.833 C 861.040 455.909, 858.705 455.161, 844.146 456.591 C 833.003 457.685, 825.788 457.704, 819.250 456.655 C 815.105 455.990, 813.998 456.095, 813.990 457.156 M 756.847 462.250 C 755.410 464.890, 754.464 480.332, 755.425 485.453 C 756.049 488.779, 756.328 489, 759.903 489 L 763.715 489 764.358 482.853 C 765.516 471.772, 765.177 464, 763.535 464 C 762.730 464, 761.589 463.100, 761 462 C 759.606 459.395, 758.358 459.471, 756.847 462.250" stroke="none" fill="#ffffff" fill-rule="evenodd"/></svg>